<?xml version="1.0" encoding="utf-8"?>
<!-- Generator: Adobe Illustrator 26.5.0, SVG Export Plug-In . SVG Version: 6.00 Build 0)  -->
<svg version="1.1" id="Layer_1" xmlns="http://www.w3.org/2000/svg" xmlns:xlink="http://www.w3.org/1999/xlink" x="0px" y="0px"
	 viewBox="0 0 500 311" style="enable-background:new 0 0 500 311;" xml:space="preserve">
<style type="text/css">
	.st0{fill:#F16A5D;}
	.st1{fill:#07233F;}
</style>
<g>
	<path class="st0" d="M340.2,11.4c-10.1,0-19.2,1.1-29.3,3.4l-30.4,86.8l21.4,63.1l0,0l32.7-62c1.1-2.3,2.3-3.4,5.6-3.4h2.3
		c2.3,0,3.4,1.1,5.6,3.4l32.7,62l0,0l19.2-58.6c1.1-2.3,3.4-3.4,7.9-3.4h21.4c2.3,0,3.4,1.1,5.6,2.3c1.1,1.1,1.1,3.4,1.1,5.6
		l-40.6,122.9c-1.1,2.3-3.4,3.4-5.6,3.4h-1.1c-2.3,0-3.4-1.1-5.6-3.4l-41.7-76.7l0,0l-40.6,75.5c-1.1,2.3-3.4,3.4-5.6,3.4H294
		c-3.4,0-4.5-1.1-5.6-3.4l-25.9-78.9l-31.6,89.1c25.9,31.6,65.4,53,110.5,53c77.8,0,142-63.1,142-142
		C482.2,75.6,419.1,11.4,340.2,11.4z"/>
	<path class="st1" d="M183.5,233.5c-6.8,1.1-11.3,2.3-16.9,2.3c-23.7,0-36.1-13.5-36.1-41.7v-57.5h-21.4c-2.3,0-3.4-1.1-4.5-2.3
		c-1.1-1.1-1.1-2.3-1.1-4.5v-21.4c0-2.3,1.1-3.4,2.3-4.5c1.1-1.1,2.3-2.3,4.5-2.3h21.4V65.5c0-2.3,1.1-3.4,2.3-4.5
		c1.1-1.1,2.3-2.3,4.5-2.3h27.1c2.3,0,3.4,1.1,4.5,2.3s1.1,2.3,1.1,4.5v36.1h39.5c2.3,0,3.4,1.1,4.5,2.3c1.1,1.1,2.3,2.3,2.3,4.5
		v21.4c0,2.3-1.1,3.4-2.3,4.5c-1.1,1.1-2.3,2.3-4.5,2.3h-39.5v51.9c0,4.5,1.1,6.8,2.3,7.9c2.3,1.1,4.5,2.3,7.9,2.3
		c4.5,0,19.2-4.5,25.9-6.8c1.1,0,1.1,0,2.3,0l48.5-138.7C232,28.3,197,12.5,158.7,12.5c-77.8,0-142,63.1-142,142
		c0,77.8,63.1,142,142,142c4.5,0,9,0,13.5-1.1l22.5-64.3C190.3,231.2,186.9,232.4,183.5,233.5z"/>
</g>
</svg>
